<?xml version="1.0" standalone="no"?>
<!DOCTYPE svg PUBLIC "-//W3C//DTD SVG 20010904//EN"
 "http://www.w3.org/TR/2001/REC-SVG-20010904/DTD/svg10.dtd">
<svg version="1.0" xmlns="http://www.w3.org/2000/svg"
 width="1287.000000pt" height="1270.000000pt" viewBox="0 0 1287.000000 1270.000000"
 preserveAspectRatio="xMidYMid meet">

<g transform="translate(0.000000,1270.000000) scale(0.100000,-0.100000)"
fill="#000000" stroke="none">
<path d="M5949 11944 c-25 -8 -29 -90 -29 -666 0 -511 1 -528 19 -538 11 -5
67 -10 124 -10 85 0 107 3 118 16 11 14 13 120 11 598 -2 358 -7 585 -13 591
-10 10 -201 17 -230 9z"/>
<path d="M9605 10534 c-61 -31 -101 -59 -145 -97 -85 -75 -652 -642 -681 -681
-43 -57 -38 -81 25 -140 86 -82 96 -85 153 -48 26 17 62 43 78 58 17 14 46 39
65 55 76 64 618 611 631 637 8 15 20 31 26 35 23 14 14 56 -23 104 -27 35 -89
94 -98 93 -1 0 -14 -7 -31 -16z"/>
<path d="M2448 10492 c-27 -17 -78 -100 -78 -128 0 -43 94 -151 383 -438 321
-318 431 -416 467 -416 12 0 46 24 78 55 31 30 62 55 68 55 7 0 14 9 17 20 9
33 -71 128 -293 350 -204 203 -442 431 -490 468 -37 28 -87 52 -107 51 -10 0
-30 -8 -45 -17z"/>
<path d="M5165 10261 c-38 -3 -85 -14 -104 -24 -19 -9 -39 -17 -44 -17 -50 0
-202 -123 -254 -206 -15 -24 -31 -44 -35 -44 -5 0 -8 -7 -8 -15 0 -12 -15 -15
-72 -15 -40 1 -91 4 -114 9 -72 14 -218 -12 -304 -53 -41 -19 -82 -39 -90 -44
-8 -5 -33 -18 -54 -28 -103 -50 -208 -172 -278 -324 -47 -101 -52 -121 -37
-131 9 -6 18 -3 28 9 13 16 13 16 8 0 -4 -12 -1 -18 8 -18 8 0 15 -4 15 -10 0
-5 6 -10 14 -10 28 0 30 -77 6 -245 -14 -97 -9 -115 35 -115 19 0 35 3 35 8 1
4 2 97 3 207 1 152 6 215 19 260 9 33 22 80 28 105 17 68 29 78 89 81 44 2 54
6 61 25 5 12 24 34 43 48 28 21 45 26 95 26 71 0 96 -21 83 -68 -4 -15 -4 -38
-1 -52 4 -14 6 -34 4 -45 -3 -11 0 -33 5 -50 7 -23 10 -4 11 80 2 196 8 208
90 204 50 -2 90 7 90 22 0 15 38 10 65 -7 19 -12 36 -15 72 -9 55 8 82 35 83
83 0 17 4 32 9 32 5 0 12 8 14 18 4 16 5 16 6 -1 0 -10 12 -22 26 -27 13 -5
32 -25 42 -45 l19 -36 13 78 c19 106 39 143 80 143 12 0 27 13 38 30 16 28 22
30 58 26 22 -2 41 -5 43 -6 1 -2 5 -3 10 -4 4 -1 12 -4 17 -7 6 -4 36 -4 68
-2 47 5 57 9 57 24 0 18 32 59 46 59 4 0 4 -11 2 -25 -3 -13 -1 -22 3 -19 5 3
9 -2 9 -10 0 -9 -5 -16 -11 -16 -8 0 -8 -5 1 -15 14 -17 80 -21 80 -5 0 6 5
10 11 10 5 0 7 -6 3 -12 -6 -10 -4 -10 7 0 17 16 29 15 29 -2 0 -8 -8 -17 -17
-19 -10 -3 -4 -5 12 -4 17 1 33 6 36 10 3 5 9 -5 12 -22 6 -28 10 -31 42 -31
34 0 35 -1 36 -37 1 -90 17 -215 27 -225 9 -9 12 -3 12 25 0 30 4 37 20 37 13
0 20 -7 20 -20 0 -13 7 -20 20 -20 20 0 25 -13 20 -55 -1 -11 1 -57 5 -102 5
-62 10 -83 21 -83 11 0 14 -22 16 -102 1 -57 1 -116 0 -133 -2 -34 -33 -105
-45 -105 -5 0 -7 -39 -6 -86 3 -71 0 -88 -13 -95 -13 -7 -15 -16 -8 -39 9 -30
-9 -58 -29 -46 -19 12 -20 -12 -2 -35 43 -56 54 -90 49 -161 -3 -38 -1 -71 3
-74 5 -3 9 -13 9 -23 0 -14 -7 -16 -35 -13 -30 4 -35 1 -35 -17 0 -12 6 -21
13 -21 18 0 54 -43 49 -59 -3 -8 -8 -6 -18 7 -7 11 -23 22 -34 25 -21 5 -28
-7 -9 -19 6 -3 20 -27 30 -52 24 -56 44 -249 28 -268 -6 -7 -8 -17 -5 -23 3
-5 1 -11 -6 -13 -15 -5 -19 -97 -5 -123 14 -28 26 -34 56 -26 22 6 27 14 31
52 5 38 6 33 13 -41 7 -89 7 -211 0 -172 -8 39 -33 26 -33 -17 0 -36 -3 -40
-27 -43 -23 -2 -29 -8 -31 -35 -3 -28 0 -33 24 -39 15 -4 40 -2 56 4 l29 11
-5 -142 c-7 -190 -8 -197 -28 -197 -14 0 -18 -9 -18 -41 0 -35 3 -40 18 -34
17 5 20 -3 26 -97 8 -122 -3 -448 -16 -448 -4 0 -8 5 -8 11 0 14 -25 39 -39
39 -6 0 -11 -6 -11 -13 0 -7 -6 -22 -14 -32 -13 -18 -14 -17 -30 13 -9 18 -21
30 -27 27 -12 -8 -106 70 -268 224 -25 24 -62 55 -81 69 -19 14 -51 40 -70 58
-37 34 -100 55 -100 34 0 -7 -6 -10 -14 -7 -26 10 -25 -21 2 -47 85 -79 116
-106 131 -111 9 -3 30 -23 46 -44 17 -21 46 -50 65 -64 71 -52 84 -63 123 -99
22 -21 45 -38 52 -38 18 0 129 -128 137 -159 4 -14 13 -51 21 -81 11 -44 18
-56 35 -58 23 -4 30 -26 12 -37 -6 -4 -32 -2 -58 5 -37 8 -63 26 -123 83 -125
119 -168 157 -174 157 -10 0 -50 33 -134 108 -40 37 -79 70 -85 74 -6 4 -36
30 -66 58 -30 28 -68 59 -85 67 -16 9 -48 35 -70 57 -22 23 -48 45 -57 49 -10
3 -18 10 -18 15 0 13 -54 34 -76 30 -11 -2 -20 3 -20 12 -1 8 -2 19 -3 24 0 5
-7 3 -15 -4 -17 -13 -10 -40 9 -40 7 0 16 -16 19 -35 8 -41 75 -106 238 -230
51 -39 333 -283 380 -329 26 -25 52 -46 57 -46 5 0 13 -9 16 -20 3 -11 13 -20
21 -20 8 0 14 -4 14 -9 0 -5 16 -19 36 -32 41 -25 112 -98 132 -135 7 -13 15
-56 17 -94 4 -59 2 -70 -11 -70 -18 0 -53 18 -73 37 -7 8 -20 12 -27 9 -8 -3
-14 -1 -14 4 0 5 -6 7 -14 4 -9 -4 -18 6 -26 30 -6 20 -15 36 -19 36 -4 0 -29
22 -56 50 -28 27 -54 50 -60 50 -5 0 -56 43 -112 95 -56 52 -119 103 -140 114
-21 10 -61 43 -88 73 -76 81 -92 93 -108 79 -11 -9 -17 -8 -28 5 -10 13 -10
17 1 24 10 6 -2 16 -43 34 -56 26 -107 67 -107 87 0 6 -10 8 -22 4 -13 -4 -31
-9 -41 -12 -10 -2 -24 1 -32 7 -12 10 -15 10 -15 0 0 -6 9 -14 20 -17 11 -3
20 -9 20 -14 0 -14 89 -98 160 -150 19 -14 54 -45 76 -67 23 -23 47 -42 53
-42 6 0 45 -33 87 -72 41 -40 84 -77 94 -83 9 -5 42 -31 71 -57 116 -101 236
-208 284 -252 28 -25 54 -46 58 -46 7 0 26 -19 69 -70 28 -32 45 -78 52 -136
6 -58 5 -63 -19 -82 -15 -12 -21 -23 -15 -27 5 -3 10 -11 10 -17 0 -7 -6 -6
-15 2 -9 7 -13 23 -11 37 3 13 0 26 -7 28 -7 2 -45 13 -85 25 -39 12 -70 25
-67 30 3 4 -4 10 -15 13 -11 3 -20 13 -20 22 0 10 -5 13 -12 9 -7 -5 -8 -3 -4
5 5 7 14 10 22 7 24 -9 15 8 -25 47 -30 29 -44 37 -60 32 -12 -4 -21 -2 -21 4
0 33 -18 48 -58 49 -29 1 -32 -2 -32 -28 0 -29 41 -72 48 -50 6 16 23 12 43
-12 14 -16 16 -24 8 -35 -9 -10 -7 -13 9 -13 32 0 51 -10 45 -25 -3 -9 9 -21
33 -32 21 -10 43 -27 49 -39 6 -12 17 -19 25 -16 8 3 12 1 8 -3 -4 -4 19 -33
51 -64 32 -31 70 -75 84 -98 14 -23 31 -44 37 -48 6 -4 8 -15 5 -25 -7 -23 13
-37 21 -16 3 9 12 16 19 16 7 0 16 6 18 13 4 9 6 9 6 -1 1 -7 5 -11 10 -8 10
6 17 -97 31 -414 14 -351 12 -325 22 -245 5 39 10 983 13 2100 4 2217 -4 2708
-42 2747 -7 6 -13 24 -13 38 0 14 -7 35 -15 46 -8 10 -15 28 -15 40 0 49 -92
189 -169 261 -44 40 -147 91 -198 97 -81 11 -141 13 -208 7z m-1328 -843 c-3
-8 -6 -5 -6 6 -1 11 2 17 5 13 3 -3 4 -12 1 -19z m49 -75 c-11 -11 -19 6 -11
24 8 17 8 17 12 0 3 -10 2 -21 -1 -24z m1554 -2743 c0 -5 -4 -10 -10 -10 -5 0
-10 5 -10 10 0 6 5 10 10 10 6 0 10 -4 10 -10z m-200 -150 c0 -5 -4 -10 -9
-10 -6 0 -13 5 -16 10 -3 6 1 10 9 10 9 0 16 -4 16 -10z"/>
<path d="M6745 10260 c-172 -36 -344 -194 -386 -353 -4 -18 -13 -52 -19 -77
-7 -25 -17 -61 -23 -80 -21 -68 -24 -425 -23 -3035 1 -2494 2 -2642 19 -2674
9 -19 17 -40 17 -48 0 -33 89 -163 156 -229 90 -89 137 -116 244 -143 73 -18
96 -20 165 -11 109 12 181 38 265 95 68 46 130 101 130 116 0 16 70 49 103 49
20 0 58 -8 84 -17 57 -20 275 -25 314 -7 13 6 51 19 84 29 139 40 279 134 366
244 58 74 87 131 114 226 35 122 55 176 74 199 21 24 84 56 113 56 13 0 32 7
42 15 11 8 27 15 35 16 22 0 88 36 168 90 110 75 196 171 266 298 39 71 48
130 53 346 7 261 7 260 112 311 87 43 164 114 227 209 87 132 116 215 123 353
9 195 -37 367 -150 553 -41 67 -37 96 22 179 28 39 50 73 50 77 0 3 6 14 13
22 20 23 44 113 58 210 17 123 -2 270 -54 415 -19 53 -118 201 -170 254 -29
30 -77 73 -108 97 -64 50 -96 113 -84 168 21 103 28 214 17 292 -13 98 -77
258 -131 330 -20 26 -40 55 -46 63 -70 104 -269 224 -410 247 -73 12 -110 27
-142 58 -18 17 -33 39 -33 49 0 10 -4 26 -9 36 -6 9 -17 44 -26 77 -60 218
-172 381 -320 466 -182 104 -298 136 -462 126 -134 -9 -163 2 -240 91 -98 115
-134 142 -235 183 -63 26 -87 30 -198 34 -69 2 -143 0 -165 -5z m65 -523 c43
-21 48 -72 42 -387 -3 -191 -9 -287 -16 -292 -6 -4 -46 -8 -88 -8 -116 0 -111
-15 -103 337 7 259 9 291 27 320 10 17 24 34 31 37 23 9 82 6 107 -7z m905 5
c33 -23 38 -69 41 -373 l4 -306 -25 -11 c-67 -31 -179 -3 -190 46 -9 45 -8
555 2 587 6 19 22 36 44 47 34 18 106 24 124 10z m-423 -19 c107 -41 121 -87
114 -369 -5 -232 -11 -290 -33 -298 -32 -13 -319 -19 -340 -8 -37 20 -43 88
-37 375 l5 262 30 28 c28 25 35 27 124 27 64 0 108 -5 137 -17z m705 -87 c38
-34 93 -129 93 -159 0 -9 4 -18 9 -22 19 -11 75 -222 87 -326 4 -41 2 -58 -8
-67 -17 -13 -194 -28 -232 -18 -51 13 -57 43 -59 319 -2 277 3 307 48 307 14
0 41 -14 62 -34z m-1004 -623 c-7 -2 -19 -2 -25 0 -7 3 -2 5 12 5 14 0 19 -2
13 -5z m-176 -286 l28 -27 1 -329 1 -328 -60 -7 c-159 -16 -290 -2 -312 34 -4
6 -6 150 -6 318 2 240 5 312 16 328 21 32 71 43 192 41 108 -2 114 -3 140 -30z
m898 11 c18 -21 39 -84 42 -133 6 -71 -12 -513 -22 -536 -12 -31 -54 -39 -199
-39 -130 0 -145 2 -161 20 -10 11 -21 17 -26 15 -4 -3 -12 3 -18 12 -9 16 -10
16 -11 -4 0 -32 -10 -53 -26 -53 -10 0 -14 12 -14 40 0 32 4 40 19 40 24 0 30
63 31 323 1 103 3 193 5 200 2 7 9 31 15 54 6 26 20 48 33 55 37 22 314 27
332 6z m374 -13 l23 -23 0 -305 c0 -167 -3 -314 -6 -325 -8 -25 -54 -42 -113
-42 -57 0 -103 41 -104 92 -4 173 4 576 12 590 27 50 141 58 188 13z m526 11
c27 -37 35 -120 35 -379 -1 -202 -4 -266 -14 -279 -24 -32 -92 -48 -207 -48
-112 0 -170 16 -185 50 -7 19 -6 486 2 563 6 50 11 61 38 80 36 26 104 36 229
33 74 -1 91 -4 102 -20z m-1430 -10 l30 -24 0 -317 0 -317 -25 -20 c-20 -16
-37 -19 -95 -18 -38 1 -72 1 -75 0 -3 -1 -17 -4 -32 -6 -23 -4 -28 -1 -28 16
0 11 -4 20 -10 20 -5 0 -10 7 -10 16 0 8 -5 12 -10 9 -20 -12 -50 6 -50 31 0
18 6 24 23 25 l22 2 -22 4 c-13 2 -23 8 -23 13 0 14 44 20 52 7 6 -9 8 -8 9 3
0 8 9 -3 19 -25 10 -21 16 -43 14 -47 -3 -4 0 -8 5 -8 12 0 10 -28 -3 -49 -7
-11 -5 -11 9 -4 16 9 18 26 16 164 -1 85 -6 216 -11 292 -7 92 -7 144 0 157 5
10 10 28 10 39 0 57 127 83 185 37z m1717 -30 c65 -58 93 -163 85 -325 -7
-135 -27 -213 -67 -253 -24 -23 -34 -27 -62 -22 -70 14 -68 6 -68 312 0 242 2
278 17 294 22 25 63 22 95 -6z m-1987 -26 c3 -5 -1 -10 -10 -10 -9 0 -13 5
-10 10 3 6 8 10 10 10 2 0 7 -4 10 -10z m372 -257 c-2 -32 -3 -6 -3 57 0 63 1
89 3 58 2 -32 2 -84 0 -115z m-330 -175 c-3 -7 -5 -2 -5 12 0 14 2 19 5 13 2
-7 2 -19 0 -25z m323 -35 c0 -23 -4 -33 -9 -27 -9 8 -4 64 5 64 2 0 4 -17 4
-37z m-323 -5 c-3 -8 -6 -5 -6 6 -1 11 2 17 5 13 3 -3 4 -12 1 -19z m434 -516
c20 -61 22 -470 2 -558 l-16 -71 -81 -7 c-44 -4 -97 -10 -116 -14 -19 -5 -51
-4 -70 0 -19 4 -51 10 -70 13 -41 6 -38 -7 -39 215 -1 154 -7 200 -27 200 -10
0 -14 13 -14 40 0 22 5 40 10 40 6 0 10 9 10 20 0 11 3 20 8 20 4 0 8 24 10
53 1 28 5 60 8 70 11 34 64 52 174 57 95 5 110 3 152 -18 38 -18 50 -30 59
-60z m842 67 c59 -27 62 -41 63 -309 2 -213 -7 -364 -21 -379 -3 -2 -55 -13
-116 -23 -105 -18 -116 -18 -185 -3 -40 9 -78 23 -84 30 -13 15 -58 4 -72 -18
-4 -6 -10 -8 -14 -5 -3 4 0 14 9 22 8 8 17 12 21 9 3 -4 6 1 6 10 0 10 -7 17
-15 17 -8 0 -15 9 -15 20 0 11 7 20 15 20 8 0 15 6 16 13 0 10 2 10 6 0 9 -25
32 -13 38 20 3 17 4 136 3 262 -2 127 0 242 4 256 12 42 54 62 143 70 97 8
162 5 198 -12z m386 -5 c11 -14 23 -40 25 -58 9 -55 13 -615 5 -628 -5 -8 -37
-14 -83 -16 -69 -4 -77 -2 -100 21 l-26 26 0 314 c0 344 -2 331 60 356 49 19
97 13 119 -15z m510 11 c55 -28 61 -64 61 -383 0 -226 -3 -292 -13 -307 -26
-34 -298 -41 -363 -9 l-30 15 2 297 c1 171 6 308 12 322 14 35 45 61 84 70 60
14 217 11 247 -5z m-2335 -9 c23 -8 43 -23 48 -35 4 -12 6 -163 4 -337 -2
-258 -5 -318 -17 -325 -17 -12 -158 -2 -175 12 -17 14 -11 627 6 658 21 40 70
50 134 27z m901 2 c15 -7 35 -29 46 -50 17 -34 19 -61 19 -322 0 -161 -4 -296
-10 -310 -9 -25 -13 -26 -93 -26 -51 0 -89 5 -99 13 -15 10 -17 51 -20 330
l-3 319 33 29 c35 32 81 38 127 17z m163 -383 c5 -38 1 -120 -8 -155 -5 -24
-8 -28 -9 -12 -1 27 -21 30 -21 2 0 -27 -16 -25 -24 3 -10 38 -7 77 9 101 9
13 15 28 14 32 -1 5 -1 27 0 48 1 38 2 39 19 21 10 -11 19 -28 20 -40z m-944
-160 c3 -9 0 -15 -8 -15 -8 0 -16 7 -20 15 -3 9 0 15 8 15 8 0 16 -7 20 -15z
m-37 -92 c-3 -10 -5 -2 -5 17 0 19 2 27 5 18 2 -10 2 -26 0 -35z m108 -73 c18
-19 17 -20 -3 -20 -15 0 -22 6 -22 20 0 11 2 20 3 20 2 0 12 -9 22 -20z m522
-6 c-3 -3 -12 -4 -19 -1 -8 3 -5 6 6 6 11 1 17 -2 13 -5z m-695 -303 l32 -28
-2 -304 c-1 -167 -2 -311 -2 -320 0 -21 -41 -29 -168 -36 -106 -5 -198 15
-204 45 -6 23 2 591 8 619 8 41 48 52 181 53 121 0 123 0 155 -29z m883 13
c23 -11 39 -28 50 -57 15 -37 16 -69 10 -287 -4 -135 -10 -265 -14 -289 -5
-40 -9 -45 -46 -58 -62 -23 -234 -29 -276 -11 -19 8 -46 20 -61 26 -32 13 -29
-16 -28 312 0 118 5 241 11 272 17 84 29 92 162 99 62 3 123 6 135 7 13 1 39
-5 57 -14z m392 -16 c24 -25 25 -29 26 -184 1 -88 1 -226 -1 -307 -2 -142 -3
-149 -27 -172 -27 -28 -61 -31 -131 -13 -34 9 -49 19 -56 37 -10 26 -12 578
-2 616 14 57 141 72 191 23z m495 23 c16 -6 37 -25 49 -43 20 -32 20 -42 15
-303 -3 -148 -10 -286 -15 -305 -13 -45 -43 -56 -162 -66 -69 -5 -98 -3 -143
11 -48 15 -60 16 -82 5 -33 -18 -57 2 -25 22 21 13 21 18 21 310 0 163 4 307
9 321 5 13 22 30 39 38 36 18 255 25 294 10z m-1406 -13 c46 -39 44 -23 44
-338 l0 -299 -24 -28 c-22 -26 -30 -28 -94 -28 -53 0 -75 4 -89 18 -24 21 -53
22 -53 1 0 -8 -4 -13 -9 -10 -5 4 -3 25 4 50 8 24 11 47 8 50 -4 3 -1 6 5 6 7
0 12 -14 12 -32 0 -17 3 -29 6 -26 3 4 5 55 4 115 -5 343 -4 402 3 446 12 67
36 87 109 87 33 0 66 -6 74 -12z m1807 -6 c13 -15 16 -64 20 -344 l4 -326 -24
-11 c-31 -14 -101 -14 -141 0 -54 19 -59 49 -58 366 l1 281 24 26 c22 23 32
26 91 26 51 0 71 -4 83 -18z m268 -19 c39 -23 57 -84 70 -243 5 -69 14 -163
19 -210 23 -198 14 -220 -86 -220 -84 0 -112 14 -121 59 -3 20 -7 163 -7 319
-1 270 0 284 18 298 27 19 72 18 107 -3z m-1051 -277 c0 -3 -4 -8 -10 -11 -5
-3 -10 -1 -10 4 0 6 5 11 10 11 6 0 10 -2 10 -4z m-33 -96 c-3 -13 0 -20 9
-20 8 0 14 -10 14 -25 0 -14 -2 -25 -4 -25 -2 0 -11 -3 -20 -6 -12 -5 -16 0
-16 22 0 33 10 74 17 74 3 0 3 -9 0 -20z m-882 -116 c-6 -45 -35 -64 -35 -24
0 11 7 20 15 20 11 0 15 12 16 43 1 23 3 34 6 23 3 -10 2 -38 -2 -62z m45
-164 c0 -16 -7 -20 -30 -20 -18 0 -30 5 -30 13 0 20 10 27 37 27 16 0 23 -6
23 -20z m-380 -30 c0 -5 -7 -10 -15 -10 -8 0 -15 5 -15 10 0 6 7 10 15 10 8 0
15 -4 15 -10z m385 -289 c61 -27 65 -46 66 -322 1 -212 -8 -339 -24 -355 -27
-28 -263 -33 -344 -7 -47 15 -71 33 -43 33 6 0 10 108 10 303 0 331 -1 322 60
356 30 17 50 19 133 16 67 -3 112 -11 142 -24z m1302 -33 c9 -17 13 -108 13
-339 l0 -317 -22 -6 c-65 -17 -160 -2 -180 28 -9 13 -11 617 -2 640 7 18 55
43 94 49 31 4 81 -24 97 -55z m-1830 31 c12 -4 26 -16 31 -26 6 -11 10 -151 9
-340 l-1 -322 -38 -6 c-40 -7 -126 1 -145 13 -16 11 -27 612 -12 646 24 51 79
64 156 35z m878 9 c72 -19 75 -34 75 -382 0 -348 5 -333 -107 -323 -90 7 -102
13 -107 50 -12 76 -17 578 -7 609 18 53 64 68 146 46z m530 2 c3 -5 15 -10 25
-10 10 0 28 -15 40 -35 22 -35 22 -36 12 -336 -5 -165 -14 -305 -19 -310 -14
-14 -192 -26 -275 -18 -43 4 -87 14 -100 23 -12 9 -17 16 -10 16 7 0 10 5 7
10 -8 13 -8 594 0 618 11 35 64 49 192 51 72 0 124 -3 128 -9z m643 -100 c18
-11 37 -32 43 -47 17 -46 29 -172 30 -316 1 -117 -2 -142 -18 -170 -16 -26
-26 -33 -59 -35 -67 -5 -67 -5 -67 297 0 148 4 274 7 280 10 16 27 14 64 -9z
m-1032 -295 c-1 -31 -5 -45 -15 -45 -9 0 -11 7 -7 23 3 12 6 32 6 45 0 12 4
22 8 22 5 0 8 -20 8 -45z m-9 -192 c-3 -10 -5 -4 -5 12 0 17 2 24 5 18 2 -7 2
-21 0 -30z m-1012 -419 c45 -21 47 -44 39 -392 l-7 -292 -41 -11 c-59 -16
-204 -15 -251 2 -68 24 -74 54 -74 377 -1 285 2 306 42 322 40 16 255 12 292
-6z m386 -13 l29 -29 0 -269 c-1 -305 -6 -347 -46 -381 -24 -21 -35 -24 -82
-20 -67 6 -86 25 -96 97 -4 28 -12 51 -18 51 -6 0 -5 6 3 17 17 19 19 189 5
354 -8 95 -7 109 12 151 22 50 30 54 115 57 41 1 53 -3 78 -28z m534 -3 c32
-38 38 -99 30 -321 -7 -198 -19 -315 -35 -331 -31 -31 -171 -47 -222 -27 -13
5 -36 12 -51 16 -40 8 -79 52 -99 111 -15 43 -18 86 -17 250 0 110 6 224 12
254 11 50 15 56 47 67 23 9 82 12 174 10 136 -2 139 -3 161 -29z m356 5 l32
-27 -7 -217 c-7 -247 -17 -292 -71 -334 -47 -35 -85 -41 -113 -18 -21 17 -22
29 -29 208 -9 262 -6 365 14 387 10 11 35 18 72 21 31 2 59 4 63 5 3 1 21 -10
39 -25z"/>
<path d="M7180 9556 c0 -13 7 -37 15 -52 l15 -29 0 37 c0 42 -8 68 -21 68 -5
0 -9 -11 -9 -24z"/>
<path d="M7190 9315 c0 -72 2 -85 16 -85 14 0 16 8 10 53 -3 28 -6 67 -6 85 0
17 -4 32 -10 32 -6 0 -10 -35 -10 -85z"/>
<path d="M6647 8573 c-2 -5 -5 -86 -6 -180 -2 -162 -1 -173 16 -173 17 0 18
11 16 168 -2 92 -3 173 -3 180 0 13 -16 17 -23 5z"/>
<path d="M8426 8417 c1 -178 1 -177 13 -177 5 0 9 74 9 165 0 119 -3 165 -11
165 -9 0 -12 -43 -11 -153z"/>
<path d="M7177 7566 c-3 -8 -1 -30 4 -48 6 -18 9 -89 7 -158 -3 -115 -2 -125
16 -128 17 -4 18 1 11 65 -5 37 -9 113 -10 168 -1 55 -3 103 -4 108 -2 12 -19
8 -24 -7z"/>
<path d="M6640 6404 c0 -181 1 -195 18 -192 15 3 17 21 19 177 2 165 -4 211
-27 211 -6 0 -10 -77 -10 -196z"/>
<path d="M7521 6558 c0 -7 4 -22 9 -33 7 -16 9 -17 9 -3 1 9 4 23 7 32 4 11 1
16 -10 16 -9 0 -16 -6 -15 -12z"/>
<path d="M8426 6413 c3 -87 9 -161 12 -165 4 -4 7 67 8 158 0 130 -3 164 -13
164 -11 0 -12 -30 -7 -157z"/>
<path d="M7176 5582 c-3 -5 0 -26 6 -48 6 -24 9 -93 6 -177 -5 -123 -4 -138
11 -135 14 3 15 18 12 108 -3 58 -5 138 -5 179 -1 47 -5 76 -13 78 -6 2 -14 0
-17 -5z"/>
<path d="M6642 4405 c-2 -161 0 -185 13 -185 9 0 18 6 20 13 9 23 -10 350 -20
354 -6 2 -11 -64 -13 -182z"/>
<path d="M5616 9282 c-2 -4 4 -19 14 -32 17 -22 19 -23 25 -7 4 9 5 24 1 32
-6 16 -31 20 -40 7z"/>
<path d="M4081 9248 c1 -13 4 -34 9 -48 7 -24 7 -23 15 12 7 37 2 58 -16 58
-5 0 -9 -10 -8 -22z"/>
<path d="M3640 9156 c-14 -7 -45 -16 -70 -19 -69 -9 -173 -44 -214 -72 -20
-14 -42 -25 -49 -25 -35 0 -189 -156 -226 -229 -12 -24 -28 -50 -36 -58 -8 -8
-15 -24 -15 -37 0 -12 -4 -26 -9 -31 -5 -6 -18 -42 -28 -82 -23 -82 -32 -316
-14 -328 19 -11 25 26 14 89 -9 57 -8 64 19 117 17 35 28 72 28 98 0 34 3 41
19 41 20 0 39 32 22 38 -6 2 -11 12 -11 22 0 13 5 17 19 13 24 -6 51 22 52 55
2 84 20 116 70 126 41 8 85 40 92 67 5 17 2 20 -14 16 -11 -3 -17 -1 -13 5 4
7 30 8 67 4 54 -5 63 -4 84 16 24 22 133 43 133 26 0 -4 6 -8 13 -8 9 0 12
-11 9 -34 -2 -18 1 -37 7 -40 6 -4 11 -18 11 -32 0 -13 4 -24 9 -24 14 0 21
27 21 80 0 58 14 70 84 70 39 0 46 3 51 23 9 41 9 52 1 83 -6 27 -13 33 -44
38 -49 8 -53 7 -82 -8z"/>
<path d="M3360 8909 c0 -28 3 -39 9 -31 9 14 7 60 -3 70 -3 3 -6 -15 -6 -39z"/>
<path d="M4810 8720 c8 -5 20 -10 25 -10 6 0 3 5 -5 10 -8 5 -19 10 -25 10 -5
0 -3 -5 5 -10z"/>
<path d="M4840 8492 c-21 -55 -25 -421 -5 -429 13 -4 15 -47 14 -264 0 -143 3
-264 6 -269 3 -6 11 -10 16 -10 13 0 7 986 -6 999 -7 7 -15 -2 -25 -27z"/>
<path d="M4601 8474 c0 -11 3 -14 6 -6 3 7 2 16 -1 19 -3 4 -6 -2 -5 -13z"/>
<path d="M3099 8400 c-2 -29 3 -65 11 -75 8 -11 -10 -119 -23 -131 -15 -15 -7
-52 13 -57 11 -3 19 -11 18 -17 -2 -7 3 -15 10 -17 7 -3 12 4 12 19 1 22 1 22
15 4 15 -20 15 -20 29 0 14 18 12 19 -16 22 -22 3 -28 7 -24 19 4 9 2 21 -2
27 -5 6 -12 54 -16 106 -3 52 -11 99 -16 104 -7 7 -10 5 -11 -4z"/>
<path d="M5592 8309 c2 -7 10 -15 17 -17 8 -3 12 1 9 9 -2 7 -10 15 -17 17 -8
3 -12 -1 -9 -9z"/>
<path d="M4598 8148 c0 -84 0 -162 1 -172 1 -11 -4 -35 -10 -54 -11 -35 -14
-385 -2 -429 14 -58 52 -3 39 57 -3 16 -6 189 -6 385 -1 207 -5 357 -11 360
-5 4 -10 -55 -11 -147z"/>
<path d="M5617 8266 c-12 -15 -25 -22 -34 -19 -12 5 -13 2 -5 -13 6 -11 19
-27 30 -37 19 -17 20 -17 26 0 4 10 2 19 -3 21 -6 2 -11 8 -11 13 0 6 8 5 20
-1 17 -9 20 -8 20 8 0 10 -6 26 -12 35 -12 16 -14 15 -31 -7z"/>
<path d="M3040 8163 c0 -5 5 -15 10 -23 8 -12 10 -11 10 8 0 12 -4 22 -10 22
-5 0 -10 -3 -10 -7z"/>
<path d="M3007 8146 c-9 -24 -10 -23 13 -29 15 -4 20 0 20 15 0 10 -4 17 -9
14 -5 -4 -11 -1 -13 6 -3 7 -7 5 -11 -6z"/>
<path d="M2971 8073 c-1 -16 -7 -23 -21 -23 -53 0 -227 -166 -284 -270 -32
-57 -35 -63 -53 -105 -18 -43 -25 -115 -11 -115 5 0 6 5 3 10 -3 6 -1 10 4 10
6 0 11 -7 11 -16 0 -24 40 29 40 53 1 21 33 63 50 63 6 0 10 6 9 13 -1 6 -1
21 0 32 1 17 3 18 11 5 8 -12 10 -12 10 5 0 22 40 45 77 45 15 0 27 9 35 25 6
14 15 25 20 25 4 0 8 8 8 18 0 11 9 27 20 37 11 10 17 22 14 26 -5 9 4 13 74
39 17 7 32 18 32 25 0 12 21 25 41 25 5 0 9 -12 9 -26 0 -22 3 -24 23 -19 12
4 36 16 53 26 17 11 41 19 52 19 34 0 36 20 3 26 -17 4 -28 10 -25 15 3 5 -11
2 -30 -8 -22 -10 -36 -24 -36 -35 0 -11 -5 -15 -15 -12 -8 4 -15 17 -15 30 0
17 -6 24 -19 24 -10 0 -21 7 -25 15 -3 8 -12 12 -21 9 -8 -3 -15 -1 -15 6 0 6
-4 9 -9 6 -5 -4 -12 0 -14 6 -3 7 -6 3 -6 -9z"/>
<path d="M5687 8024 c-12 -13 -8 -20 14 -21 11 -1 19 3 17 9 -5 15 -22 21 -31
12z"/>
<path d="M5696 7974 c-8 -21 -7 -26 3 -43 8 -12 12 -12 25 2 21 21 20 34 -3
46 -15 8 -20 7 -25 -5z"/>
<path d="M3040 7969 c0 -5 5 -7 10 -4 6 3 10 8 10 11 0 2 -4 4 -10 4 -5 0 -10
-5 -10 -11z"/>
<path d="M3076 7925 c-11 -28 -7 -445 4 -445 10 0 12 49 11 324 0 128 -3 152
-15 121z"/>
<path d="M5332 7844 c-34 -23 -26 -56 16 -65 38 -8 46 2 40 48 -4 33 -24 40
-56 17z"/>
<path d="M4351 7710 c-2 -3 -5 -38 -7 -77 -2 -40 -9 -84 -14 -99 -8 -19 -6
-29 6 -41 23 -23 34 -1 33 67 -1 52 -14 161 -18 150z"/>
<path d="M4851 7393 c7 -10 14 -20 16 -22 1 -1 7 0 13 4 14 9 -6 35 -27 35
-13 0 -13 -3 -2 -17z"/>
<path d="M3075 7350 c-3 -5 -1 -10 4 -10 6 0 11 5 11 10 0 6 -2 10 -4 10 -3 0
-8 -4 -11 -10z"/>
<path d="M4910 7330 c0 -5 10 -15 23 -21 22 -12 22 -12 3 10 -21 23 -26 26
-26 11z"/>
<path d="M3070 7256 c0 -36 5 -68 10 -71 6 -4 10 20 10 64 0 41 -4 71 -10 71
-6 0 -10 -28 -10 -64z"/>
<path d="M4970 7280 c0 -5 5 -10 11 -10 5 0 7 5 4 10 -3 6 -8 10 -11 10 -2 0
-4 -4 -4 -10z"/>
<path d="M2590 7176 c0 -3 11 -25 24 -50 21 -39 25 -42 29 -24 3 12 2 29 -3
38 -5 10 -6 21 -2 25 4 5 2 5 -5 1 -6 -3 -14 -2 -18 4 -6 10 -25 14 -25 6z"/>
<path d="M2650 7051 c0 -16 5 -33 10 -36 6 -4 10 6 10 24 0 16 -4 33 -10 36
-6 4 -10 -6 -10 -24z"/>
<path d="M5631 7044 c0 -11 3 -14 6 -6 3 7 2 16 -1 19 -3 4 -6 -2 -5 -13z"/>
<path d="M9991 7022 c-12 -23 -15 -210 -3 -229 19 -30 99 -34 649 -31 659 4
595 -12 597 149 l1 103 -40 8 c-22 5 -299 11 -616 15 l-577 6 -11 -21z"/>
<path d="M2692 7007 c-2 -32 40 -98 56 -89 9 6 8 17 -7 48 -26 54 -46 71 -49
41z"/>
<path d="M1446 6982 c-354 -2 -483 -5 -494 -14 -19 -16 -14 -220 6 -240 10
-10 109 -14 435 -17 529 -4 763 4 772 28 11 25 17 215 8 227 -11 16 -176 19
-727 16z"/>
<path d="M2800 6960 c0 -23 15 -27 23 -6 3 8 -1 17 -9 20 -9 4 -14 -1 -14 -14z"/>
<path d="M3072 6900 c0 -14 2 -19 5 -12 2 6 2 18 0 25 -3 6 -5 1 -5 -13z"/>
<path d="M3076 6835 c-3 -8 -1 -15 4 -15 6 0 10 7 10 15 0 8 -2 15 -4 15 -2 0
-6 -7 -10 -15z"/>
<path d="M2730 6790 c0 -5 -8 -18 -17 -28 -43 -44 -66 -86 -106 -187 -18 -47
-30 -155 -16 -155 5 0 9 7 9 15 0 17 40 96 40 80 0 -6 5 -2 11 7 5 10 9 21 9
24 -1 4 2 10 7 13 5 3 18 19 30 34 17 22 20 34 13 53 -5 13 -6 24 -1 24 17 0
44 54 47 92 2 27 -1 38 -12 38 -8 0 -14 -4 -14 -10z"/>
<path d="M4097 6685 c-7 -65 -3 -312 6 -321 4 -4 7 1 7 12 0 10 2 87 4 169 4
155 -6 233 -17 140z"/>
<path d="M3307 6510 c-11 -45 -20 -491 -12 -547 3 -24 10 -43 14 -43 5 0 15
30 22 68 18 87 19 479 2 490 -6 4 -13 21 -15 37 l-3 30 -8 -35z"/>
<path d="M4757 6473 c-3 -5 -1 -17 4 -28 7 -18 8 -18 8 -1 1 12 6 16 16 12 9
-3 15 0 15 9 0 15 -35 21 -43 8z"/>
<path d="M4347 6403 c-4 -3 -7 -33 -7 -65 0 -78 24 -76 28 2 3 50 -6 78 -21
63z"/>
<path d="M4530 6404 c1 -14 37 -54 49 -54 24 0 27 -193 3 -236 -7 -12 -6 -31
2 -58 15 -51 9 -271 -9 -306 -8 -17 -9 -35 -4 -55 11 -37 8 -270 -3 -252 -5 8
-8 7 -8 -5 0 -10 4 -18 8 -18 25 0 36 -1030 12 -1038 -12 -4 -14 -102 -2 -102
10 0 33 -135 26 -153 -3 -8 -1 -18 5 -22 8 -4 11 120 12 417 1 470 8 1079 18
1438 7 262 4 323 -12 313 -6 -4 -8 0 -4 10 4 10 2 27 -5 40 -12 24 -88 95 -88
81z"/>
<path d="M2611 6284 c0 -11 3 -14 6 -6 3 7 2 16 -1 19 -3 4 -6 -2 -5 -13z"/>
<path d="M5007 6257 c-3 -9 1 -18 10 -21 23 -9 29 2 11 20 -13 14 -16 14 -21
1z"/>
<path d="M4098 6175 c-4 -49 -6 -101 -4 -115 2 -14 -4 -37 -12 -51 -15 -27
-11 -59 7 -59 13 0 23 125 19 230 l-3 85 -7 -90z"/>
<path d="M2575 6178 c4 -24 11 -47 16 -52 5 -6 9 -20 9 -32 0 -24 65 -170 79
-179 22 -13 14 53 -11 104 -16 29 -28 60 -28 68 0 8 -9 31 -20 53 -11 22 -20
48 -20 60 0 12 -7 20 -16 20 -13 0 -15 -7 -9 -42z"/>
<path d="M4802 6127 c6 -75 14 -93 32 -78 35 29 34 -41 -1 -87 l-26 -35 12
-201 c7 -110 12 -246 12 -301 -1 -91 8 -139 24 -123 14 14 24 212 26 512 l3
318 -25 19 c-61 49 -62 48 -57 -24z"/>
<path d="M5130 6121 c0 -11 48 -51 61 -51 19 0 7 16 -26 38 -19 12 -35 18 -35
13z"/>
<path d="M4322 6098 c7 -19 38 -22 38 -4 0 10 -9 16 -21 16 -12 0 -19 -5 -17
-12z"/>
<path d="M2700 5890 c0 -5 7 -10 16 -10 8 0 12 5 9 10 -3 6 -10 10 -16 10 -5
0 -9 -4 -9 -10z"/>
<path d="M3290 5855 c0 -19 4 -35 10 -35 5 0 9 16 7 35 -3 45 -17 45 -17 0z"/>
<path d="M2736 5858 c-4 -16 0 -28 14 -40 11 -9 20 -20 20 -25 0 -13 44 -53
57 -53 6 0 16 -7 23 -15 16 -19 27 -19 27 -1 0 8 -5 14 -10 13 -5 -1 -15 16
-23 38 -7 22 -16 47 -19 56 -5 13 -64 49 -79 49 -2 0 -6 -10 -10 -22z"/>
<path d="M2893 5845 c-3 -9 -3 -19 1 -22 3 -4 6 0 6 7 0 9 5 7 16 -6 8 -10 12
-13 8 -5 -5 10 -1 12 17 6 l24 -6 -25 20 c-30 25 -39 26 -47 6z"/>
<path d="M3477 5750 c-7 -10 -25 -24 -40 -29 -15 -6 -27 -16 -27 -22 0 -6 -10
-19 -22 -30 -20 -16 -20 -18 -5 -19 19 0 23 -15 7 -25 -16 -10 -1 -25 26 -25
15 0 24 6 24 15 0 8 -6 15 -12 15 -7 0 -14 12 -14 26 -2 21 5 29 32 40 37 15
74 48 74 64 0 17 -28 11 -43 -10z"/>
<path d="M3275 5751 c-3 -5 -1 -12 5 -16 5 -3 10 1 10 9 0 18 -6 21 -15 7z"/>
<path d="M3578 5743 c7 -3 16 -2 19 1 4 3 -2 6 -13 5 -11 0 -14 -3 -6 -6z"/>
<path d="M2930 5689 c0 -12 25 -39 37 -39 4 0 21 -11 37 -24 29 -22 30 -26 28
-99 -2 -44 -9 -89 -18 -107 -12 -22 -14 -45 -9 -78 10 -74 15 -85 30 -72 10 8
19 8 35 0 11 -6 26 -8 32 -4 6 4 8 3 5 -3 -3 -5 3 -17 13 -26 26 -22 32 -10
38 75 3 43 8 65 13 56 6 -9 9 -10 9 -1 0 7 20 31 45 54 25 23 45 45 45 50 0 4
-15 3 -32 -2 -18 -5 -34 -9 -35 -9 -2 0 -3 9 -3 21 0 11 -4 17 -10 14 -6 -4
-10 5 -10 19 0 14 -4 26 -10 26 -5 0 -10 -9 -10 -20 0 -27 -18 -25 -23 3 l-4
22 -8 -22 c-9 -28 -25 -30 -25 -3 0 11 -4 20 -10 20 -5 0 -10 9 -10 20 0 11
-4 20 -10 20 -5 0 -10 10 -10 23 0 25 -29 56 -70 74 -43 19 -60 23 -60 12z"/>
<path d="M4091 5607 c-15 -19 -2 -29 15 -12 8 7 14 16 14 19 0 11 -17 6 -29
-7z"/>
<path d="M3360 5574 c0 -8 5 -12 10 -9 6 3 10 10 10 16 0 5 -4 9 -10 9 -5 0
-10 -7 -10 -16z"/>
<path d="M3320 5529 c0 -5 5 -7 10 -4 6 3 10 8 10 11 0 2 -4 4 -10 4 -5 0 -10
-5 -10 -11z"/>
<path d="M3550 5475 c-25 -25 -49 -45 -53 -45 -5 0 -30 -22 -57 -50 -27 -27
-56 -50 -65 -50 -14 0 -70 -55 -70 -69 0 -6 71 -2 109 5 11 2 31 17 43 33 13
17 29 28 36 25 7 -2 21 3 32 11 20 15 20 16 -2 31 -32 23 -30 54 2 54 18 0 25
-5 25 -20 0 -13 7 -20 19 -20 24 0 31 19 17 42 -8 13 -6 25 7 47 37 64 18 66
-43 6z"/>
<path d="M4334 5508 c-14 -22 -4 -162 12 -178 8 -8 14 -10 13 -5 -1 6 1 31 4
58 20 137 20 137 -2 137 -11 0 -23 -5 -27 -12z"/>
<path d="M3825 5356 c-12 -8 -15 -19 -10 -39 9 -34 25 -45 37 -23 5 9 16 16
23 16 8 0 15 5 15 10 0 6 -4 10 -10 10 -5 0 -10 6 -10 14 0 20 -25 27 -45 12z"/>
<path d="M4340 5275 c0 -19 5 -35 10 -35 6 0 10 16 10 35 0 19 -4 35 -10 35
-5 0 -10 -16 -10 -35z"/>
<path d="M5320 5273 c0 -21 5 -45 10 -53 7 -11 10 -2 10 32 0 26 -4 50 -10 53
-6 4 -10 -9 -10 -32z"/>
<path d="M3739 5286 c-34 -15 -118 -85 -131 -110 -10 -20 -10 -20 8 -5 24 21
64 34 64 21 0 -6 -6 -12 -12 -14 -7 -3 -2 -7 10 -10 15 -4 22 -2 22 7 0 9 9
12 26 9 46 -8 81 58 51 97 -10 12 -17 13 -38 5z"/>
<path d="M4093 5264 c-13 -19 -23 -46 -23 -59 0 -26 34 -74 45 -63 10 10 34
115 31 136 -5 29 -30 23 -53 -14z"/>
<path d="M4837 5189 c-7 -88 -4 -101 18 -92 12 4 14 21 12 79 -4 107 -22 115
-30 13z"/>
<path d="M3240 5214 c-24 -17 -42 -23 -60 -19 -21 5 -29 1 -40 -20 -14 -27
-40 -34 -40 -11 0 7 -11 16 -25 18 -13 3 -22 2 -20 -3 3 -4 1 -10 -5 -14 -13
-8 -13 -52 0 -60 6 -3 10 -13 10 -21 0 -27 59 -140 102 -194 63 -80 139 -160
153 -160 7 0 19 -8 29 -19 16 -17 37 -28 136 -66 25 -10 59 -24 77 -31 17 -8
36 -14 42 -14 41 0 161 -100 161 -134 0 -8 5 -16 12 -18 14 -5 20 -38 6 -38
-27 0 21 -183 61 -232 70 -87 138 -156 181 -184 28 -19 55 -34 60 -34 5 0 10
-5 12 -11 4 -12 52 -32 128 -54 25 -7 74 -24 110 -37 56 -22 77 -24 150 -20
76 4 90 8 137 39 29 19 57 32 62 29 5 -3 11 1 15 9 8 21 56 19 73 -2 7 -10 25
-34 38 -53 40 -58 98 -116 133 -134 18 -9 36 -24 39 -32 3 -7 10 -14 16 -14 6
0 18 -6 26 -14 21 -19 151 -46 221 -46 58 0 175 21 238 43 20 8 63 33 94 56
86 65 158 166 103 145 -10 -4 -18 3 -25 21 -17 45 -13 55 24 55 29 0 33 3 31
23 -1 12 -3 37 -4 55 -1 35 -21 45 -21 11 0 -33 -28 -5 -34 35 -9 52 -12 195
-4 183 12 -20 20 20 9 42 -6 11 -11 45 -11 75 0 43 -3 56 -15 56 -13 0 -15
-27 -16 -177 -1 -98 -4 -167 -8 -153 -6 19 -9 10 -15 -40 -11 -97 -33 -164
-64 -192 -32 -30 -64 -48 -86 -48 -9 0 -25 -9 -36 -20 -18 -18 -28 -20 -78
-13 -84 10 -142 9 -150 -3 -9 -13 -42 -26 -42 -16 0 4 -14 9 -31 10 -54 4 -79
17 -79 41 0 5 -9 13 -20 16 -24 8 -66 67 -75 107 -7 27 -7 27 -28 7 -11 -10
-24 -19 -28 -19 -12 0 -19 31 -13 56 7 27 14 30 33 12 11 -11 12 -8 7 17 -8
34 -26 56 -32 40 -3 -6 -55 -10 -133 -9 l-130 1 2 -38 c1 -32 5 -39 22 -40 14
0 15 -2 5 -6 -8 -2 -29 -11 -47 -19 -39 -17 -43 -17 -43 0 0 29 -23 35 -86 22
-33 -7 -66 -16 -72 -20 -7 -4 -27 -4 -47 0 -25 4 -35 11 -35 25 0 11 -4 19
-10 19 -5 0 -10 9 -10 20 0 13 7 20 20 20 13 0 18 5 14 15 -5 11 -21 15 -60
15 -41 0 -54 -4 -54 -15 0 -21 -22 -19 -43 5 -9 11 -15 20 -12 20 3 0 -3 9
-12 20 -12 13 -30 20 -55 20 -31 0 -38 4 -38 20 0 13 -7 20 -20 20 -20 0 -44
32 -33 44 3 3 -5 6 -19 6 -24 0 -25 3 -32 82 -4 45 -11 102 -17 127 -5 25 -10
114 -10 198 1 110 -3 165 -14 196 -8 23 -15 56 -16 72 -1 17 -3 23 -6 13 -2
-9 -19 -23 -37 -32 -43 -20 -47 -31 -53 -138 -6 -88 -6 -88 -33 -88 -26 0 -28
3 -32 51 -3 28 -13 58 -22 67 -17 17 -22 6 -7 -17 6 -9 4 -19 -4 -28 -19 -18
-25 -16 -25 7 0 13 -7 20 -19 20 -11 0 -25 13 -35 34 -14 31 -35 40 -51 24 -9
-9 -78 12 -97 30 -10 8 -18 26 -18 39 0 13 -5 33 -10 44 -9 17 -3 28 46 79 31
33 51 60 44 60 -9 0 -9 4 -2 13 11 13 12 17 12 42 0 9 11 21 25 27 14 6 25 17
25 25 0 19 -4 17 -72 -34 -100 -77 -103 -80 -88 -98 7 -8 9 -15 5 -15 -4 0 -2
-7 5 -15 7 -8 10 -22 6 -30 -5 -13 -8 -14 -20 -3 -7 7 -10 15 -5 18 10 7 0 50
-12 50 -5 0 -16 -11 -24 -24 -23 -34 -63 -42 -88 -17 -21 20 -47 83 -47 114 0
15 -19 23 -45 17 -5 -1 1 10 15 25 19 20 30 24 52 20 17 -4 28 -2 28 4 0 7 11
16 25 21 33 12 32 24 -4 49 -34 25 -28 25 -71 -5z m-90 -74 c0 -20 -5 -30 -15
-30 -8 0 -15 7 -15 15 0 8 5 15 10 15 6 0 10 7 10 15 0 8 2 15 5 15 3 0 5 -13
5 -30z m670 -570 c0 -5 -4 -10 -10 -10 -5 0 -10 5 -10 10 0 6 5 10 10 10 6 0
10 -4 10 -10z m30 -6 c0 -8 -4 -12 -10 -9 -5 3 -10 10 -10 16 0 5 5 9 10 9 6
0 10 -7 10 -16z m60 -290 c0 -8 -5 -12 -10 -9 -6 4 -8 11 -5 16 9 14 15 11 15
-7z m862 -294 c2 -22 0 -40 -4 -40 -5 0 -8 18 -8 40 0 22 2 40 4 40 2 0 6 -18
8 -40z"/>
<path d="M3670 5140 c-8 -5 -10 -10 -5 -10 6 0 17 5 25 10 8 5 11 10 5 10 -5
0 -17 -5 -25 -10z"/>
<path d="M3586 5102 c-3 -5 -1 -14 3 -20 6 -10 10 -10 20 1 9 12 8 16 -3 20
-9 4 -17 3 -20 -1z"/>
<path d="M3853 5078 c-40 -19 -40 -87 2 -106 21 -10 23 -8 29 20 8 42 8 86 -1
91 -5 3 -18 0 -30 -5z"/>
<path d="M3616 4865 c-10 -27 -7 -52 9 -65 13 -11 15 -7 15 24 0 20 0 39 1 43
1 15 -19 13 -25 -2z"/>
<path d="M5796 4768 c-3 -13 -7 -156 -8 -319 -3 -279 -2 -296 14 -291 17 4 18
27 18 318 0 199 -4 314 -10 314 -5 0 -12 -10 -14 -22z"/>
<path d="M4342 4510 c0 -14 2 -19 5 -12 2 6 2 18 0 25 -3 6 -5 1 -5 -13z"/>
<path d="M4317 4203 c-8 -66 4 -127 26 -131 15 -3 17 7 17 87 0 82 -2 91 -19
91 -15 0 -20 -10 -24 -47z"/>
<path d="M8904 4219 c-10 -12 -36 -30 -56 -40 -104 -53 -73 -124 149 -346 401
-400 588 -567 650 -579 25 -5 38 2 91 47 70 59 76 81 41 138 -31 50 -717 733
-773 769 -58 38 -76 39 -102 11z"/>
<path d="M3197 4174 c-37 -20 -95 -74 -455 -429 -167 -165 -316 -317 -329
-339 -29 -45 -26 -69 16 -111 99 -100 102 -101 172 -57 46 30 664 625 734 707
78 92 81 137 13 205 -34 34 -46 40 -82 40 -22 -1 -54 -8 -69 -16z m113 -59 c0
-3 -11 -23 -24 -44 -24 -38 -76 -84 -146 -130 -19 -13 -49 -43 -65 -67 -17
-24 -34 -44 -40 -44 -10 0 -38 -26 -120 -109 -22 -23 -44 -41 -48 -41 -8 0
-23 -12 -100 -82 -16 -16 -36 -28 -43 -28 -7 0 -15 -8 -19 -17 -6 -20 -54 -58
-62 -50 -7 8 29 56 47 62 9 3 23 17 32 32 9 16 63 74 120 130 56 56 152 152
213 212 60 61 113 111 118 111 4 0 29 16 54 35 40 30 83 46 83 30z"/>
<path d="M5716 3905 c-3 -8 -1 -15 4 -15 6 0 10 7 10 15 0 8 -2 15 -4 15 -2 0
-6 -7 -10 -15z"/>
<path d="M5385 3240 l-560 -5 -41 -27 c-46 -29 -69 -70 -79 -140 -10 -66 1
-102 47 -156 72 -84 -42 -77 1311 -80 665 -1 1262 1 1327 6 105 8 124 12 160
36 67 44 82 77 76 168 -7 104 -38 161 -106 191 -27 13 -1109 16 -2135 7z"/>
<path d="M5989 2578 c-3 -16 -3 -972 1 -1019 l5 -64 87 -9 c70 -7 91 -6 104 5
15 12 16 59 11 541 -3 290 -8 532 -12 537 -5 9 -194 17 -196 9z"/>
<path d="M4951 2561 c-10 -6 -15 -44 -18 -142 -6 -163 3 -205 55 -248 54 -46
56 -47 89 -65 17 -8 37 -21 45 -28 21 -20 69 -51 111 -73 21 -11 82 -49 135
-85 109 -74 110 -75 114 -212 3 -79 1 -89 -19 -110 -22 -22 -23 -22 -198 -11
-97 6 -179 14 -182 17 -3 3 6 15 20 28 21 19 26 35 31 94 7 88 -2 99 -95 109
-96 10 -99 6 -99 -160 0 -102 3 -137 14 -148 26 -26 158 -38 400 -38 264 0
312 8 324 50 4 14 7 98 6 185 l0 159 -31 26 c-47 41 -81 64 -142 96 -31 17
-98 58 -150 93 -51 34 -96 62 -100 62 -17 0 -93 75 -110 109 -20 39 -36 159
-24 177 10 13 164 34 256 34 93 0 107 -15 107 -114 0 -95 6 -101 105 -93 41 3
79 9 86 13 8 4 9 23 5 58 -10 68 -10 82 -1 141 12 83 25 80 -374 83 -192 1
-352 -2 -360 -7z"/>
<path d="M6487 2563 c-4 -3 -7 -243 -7 -533 0 -396 3 -529 12 -538 13 -13 126
-16 166 -6 22 6 22 7 23 238 1 127 4 242 8 256 l7 25 179 0 180 0 6 -30 c4
-16 7 -132 8 -256 l1 -226 46 -7 c26 -3 71 -6 100 -6 l54 0 2 475 c1 261 3
505 3 543 l0 67 -100 0 -100 0 -3 -214 c-2 -189 -4 -216 -20 -227 -25 -20
-321 -19 -348 0 -18 13 -19 29 -21 222 -1 159 -5 209 -15 215 -15 10 -172 12
-181 2z"/>
<path d="M5260 1190 c-49 -8 -60 -14 -97 -57 -58 -66 -70 -159 -32 -239 23
-47 98 -91 171 -100 103 -13 1729 -7 1780 6 70 19 114 55 126 103 23 87 23
103 2 159 -23 61 -67 112 -108 124 -36 10 -1772 14 -1842 4z"/>
<path d="M5540 560 c0 -31 216 -223 295 -262 57 -29 160 -57 252 -69 105 -14
224 -1 300 32 23 11 47 19 52 19 17 0 120 58 170 96 51 39 201 183 201 193 0
4 -286 7 -635 6 -559 0 -635 -2 -635 -15z"/>
</g>
</svg>
